<svg width='24' height='24' viewBox='0 0 24 24' xmlns='http://www.w3.org/2000/svg' xmlns:xlink='http://www.w3.org/1999/xlink'><rect width='24' height='24' stroke='none' fill='#000000' opacity='0'/>


<g transform="matrix(0.43 0 0 0.43 12 12)" >
<path style="stroke: none; stroke-width: 1; stroke-dasharray: none; stroke-linecap: butt; stroke-dashoffset: 0; stroke-linejoin: miter; stroke-miterlimit: 4; fill: rgb(255,255,255); fill-rule: nonzero; opacity: 1;" transform=" translate(-25, -27)" d="M 3 8 C 2.734375 8 2.480469 8.105469 2.292969 8.292969 C 2.105469 8.480469 2 8.734375 2 9 L 2 26.265625 C 2.292969 26.097656 2.636719 26 3 26 L 4 26 L 4 10 L 46 10 L 46 44 L 30 44 L 30 45 C 30 45.363281 29.902344 45.707031 29.734375 46 L 47 46 C 47.265625 46 47.519531 45.894531 47.707031 45.707031 C 47.894531 45.519531 48 45.265625 48 45 L 48 9 C 48 8.734375 47.894531 8.480469 47.707031 8.292969 C 47.519531 8.105469 47.265625 8 47 8 Z M 36 13 C 35.640625 12.996094 35.304688 13.183594 35.121094 13.496094 C 34.941406 13.808594 34.941406 14.191406 35.121094 14.503906 C 35.304688 14.816406 35.640625 15.003906 36 15 L 39.585938 15 L 29.292969 25.292969 C 29.03125 25.542969 28.925781 25.917969 29.019531 26.265625 C 29.109375 26.617188 29.382813 26.890625 29.734375 26.980469 C 30.082031 27.074219 30.457031 26.96875 30.707031 26.707031 L 41 16.414063 L 41 20 C 40.996094 20.359375 41.183594 20.695313 41.496094 20.878906 C 41.808594 21.058594 42.191406 21.058594 42.503906 20.878906 C 42.816406 20.695313 43.003906 20.359375 43 20 L 43 13 Z M 3 28 C 2.449219 28 2 28.449219 2 29 L 2 45 C 2 45.550781 2.449219 46 3 46 L 27 46 C 27.550781 46 28 45.550781 28 45 L 28 29 C 28 28.449219 27.550781 28 27 28 Z" stroke-linecap="round" />
</g>
</svg>